<?xml version="1.0" standalone="no"?>
<!DOCTYPE svg PUBLIC "-//W3C//DTD SVG 20010904//EN"
 "http://www.w3.org/TR/2001/REC-SVG-20010904/DTD/svg10.dtd">
<svg version="1.0" xmlns="http://www.w3.org/2000/svg"
 width="109.000000pt" height="113.000000pt" viewBox="0 0 109.000000 113.000000"
 preserveAspectRatio="xMidYMid meet">
<metadata>
Created by potrace 1.15, written by Peter Selinger 2001-2017
</metadata>
<g transform="translate(0.000000,113.000000) scale(0.100000,-0.100000)"
fill="#000000" stroke="none">
<path d="M52 1110 c-12 -5 -27 -21 -32 -35 -14 -37 -13 -527 1 -558 6 -14 22
-30 36 -36 16 -7 140 -11 377 -11 342 0 354 1 380 21 l26 20 0 280 0 280 -25
24 -24 25 -358 -1 c-197 0 -368 -4 -381 -9z m338 -308 l0 -249 -146 -7 c-80
-3 -150 -4 -155 0 -10 6 -13 487 -2 497 3 4 73 7 155 7 l148 0 0 -248z m380
-2 l0 -250 -155 0 -155 0 0 243 c0 134 3 247 7 250 3 4 73 7 155 7 l148 0 0
-250z"/>
</g>
</svg>
